<?xml version="1.0" standalone="no"?>
<!DOCTYPE svg PUBLIC "-//W3C//DTD SVG 20010904//EN"
 "http://www.w3.org/TR/2001/REC-SVG-20010904/DTD/svg10.dtd">
<svg version="1.0" xmlns="http://www.w3.org/2000/svg"
 width="260.000000pt" height="260.000000pt" viewBox="0 0 260.000000 260.000000"
 preserveAspectRatio="xMidYMid meet">
<metadata>
Created by potrace 1.11, written by Peter Selinger 2001-2013
</metadata>
<g transform="translate(0.000000,260.000000) scale(0.100000,-0.100000)"
fill="#000000" stroke="none">
<path d="M619 2580 c-151 -37 -279 -112 -390 -227 -110 -114 -174 -228 -209
-377 -19 -76 -20 -121 -20 -676 0 -555 1 -600 20 -676 35 -149 99 -263 209
-377 112 -117 240 -190 395 -227 76 -19 121 -20 676 -20 555 0 600 1 676 20
155 37 283 110 395 227 110 114 174 228 209 377 19 76 20 121 20 676 0 555 -1
600 -20 676 -35 149 -99 263 -209 377 -112 117 -240 190 -395 227 -76 19 -120
20 -681 19 -550 0 -606 -2 -676 -19z m543 -297 c59 -53 62 -98 22 -292 -79
-377 -105 -512 -124 -631 -11 -69 -36 -216 -55 -328 -39 -226 -43 -287 -19
-320 26 -37 114 -28 350 37 215 60 596 113 693 96 52 -9 71 -27 71 -70 0 -40
-44 -96 -87 -113 -16 -6 -118 -15 -228 -21 -219 -12 -277 -22 -570 -100 -304
-81 -374 -85 -442 -27 -40 34 -42 114 -9 292 14 76 37 198 50 269 53 282 126
779 140 945 14 177 27 231 62 261 37 33 111 34 146 2z"/>
</g>
</svg>
